<svg viewBox="279.36 218.68550000000002 636.8565315315316 632.5740000000001" preserveAspectRatio="xMidYMid meet" version="1.0" xmlns="http://www.w3.org/2000/svg" style="max-height: 500px" width="636.8565315315316" height="632.5740000000001">

<g stroke="none" fill="#000000" transform="translate(0.000000,1000.000000) scale(0.100000,-0.100000)">
<path d="M5704 8486 c-40 -18 -91 -80 -99 -122 -19 -105 82 -205 190 -187 76 12 145 111 131 187 -9 45 -47 91 -97 116 -44 23 -81 25 -125 6z m98 -113 c25 -22 23 -59 -4 -77 -29 -20 -47 -20 -70 1 -22 20 -23 51 -1 75 20 22 51 23 75 1z"/>
<path d="M6930 8489 c-94 -39 -134 -168 -75 -245 58 -76 164 -91 231 -32 65 57 81 130 43 197 -39 69 -134 108 -199 80z m94 -115 c33 -32 7 -94 -40 -94 -24 0 -54 33 -54 59 0 42 63 66 94 35z"/>
<path d="M6385 7706 c-144 -46 -245 -141 -297 -281 -20 -56 -22 -80 -26 -387 l-4 -328 -361 0 c-330 0 -366 -2 -402 -19 -48 -22 -69 -44 -90 -94 -13 -31 -15 -98 -15 -429 l0 -393 -96 -33 c-462 -158 -913 -467 -1197 -822 -78 -96 -176 -246 -218 -333 -18 -37 -36 -66 -40 -65 -4 2 -140 132 -302 290 -284 276 -297 287 -342 294 -28 4 -62 2 -85 -5 -48 -14 -107 -78 -116 -125 -4 -25 25 -225 95 -646 l101 -610 -101 -608 c-59 -358 -98 -621 -95 -640 6 -41 47 -97 90 -123 39 -24 110 -24 153 -1 18 9 160 142 317 295 l285 277 37 -67 c170 -313 416 -584 724 -799 455 -318 991 -500 1605 -544 671 -48 1339 105 1893 434 495 294 851 709 1017 1186 62 179 86 319 92 537 8 263 -22 449 -109 682 -127 345 -384 689 -703 941 -207 164 -532 344 -793 440 l-122 45 0 393 c0 421 -2 435 -52 490 -44 46 -94 52 -470 52 l-348 0 0 295 c0 207 4 302 12 320 22 50 49 55 272 55 217 0 243 4 290 48 81 76 71 204 -21 267 l-38 25 -250 -1 c-173 0 -262 -4 -290 -13z m545 -1592 l0 -246 -32 6 c-162 34 -486 66 -666 66 -174 0 -447 -26 -621 -60 -29 -5 -58 -10 -62 -10 -5 0 -9 110 -9 245 l0 245 695 0 695 0 0 -246z m-520 -896 c0 -431 1 -434 85 -483 39 -23 54 -27 101 -23 58 5 93 24 128 72 20 26 21 42 24 397 1 203 4 369 6 369 2 0 50 -9 107 -21 391 -78 787 -253 1084 -478 134 -102 335 -305 415 -418 328 -466 396 -973 198 -1470 -82 -206 -208 -392 -388 -574 -69 -69 -163 -155 -210 -191 -375 -288 -863 -476 -1384 -533 -258 -29 -638 -16 -892 29 -777 139 -1426 572 -1713 1143 -22 45 -59 129 -82 185 -22 57 -48 111 -57 122 -24 26 -87 56 -119 56 -79 0 -101 -16 -301 -214 -162 -159 -193 -186 -188 -161 3 17 30 179 61 360 l54 331 -54 334 c-30 184 -58 349 -61 365 -5 25 28 -3 193 -167 217 -213 221 -216 321 -205 69 8 107 53 165 202 83 211 174 358 345 551 302 342 815 620 1335 724 56 12 110 23 120 26 16 5 17 -8 17 -175 0 -210 8 -243 71 -286 83 -58 194 -36 244 49 24 42 25 47 25 249 l0 207 175 0 175 0 0 -372z"/>
<path d="M5105 4394 c-360 -81 -603 -448 -531 -803 64 -316 324 -541 646 -558 124 -7 218 13 335 71 416 206 514 760 192 1089 -131 135 -288 205 -472 213 -68 2 -122 -1 -170 -12z m255 -346 c156 -48 259 -225 229 -392 -13 -75 -36 -121 -88 -174 -50 -52 -119 -87 -197 -101 -229 -42 -427 160 -392 397 31 203 244 331 448 270z"/>
<path d="M7098 4400 c-226 -38 -428 -202 -518 -419 -38 -94 -50 -156 -50 -266 0 -125 13 -182 67 -295 39 -80 59 -108 132 -181 72 -72 102 -94 181 -132 301 -147 634 -74 841 183 100 124 149 266 149 432 0 128 -13 184 -67 298 -38 79 -59 108 -132 181 -73 73 -102 94 -181 132 -142 68 -282 90 -422 67z m250 -362 c68 -25 145 -100 180 -175 23 -50 27 -71 27 -148 0 -78 -4 -97 -28 -147 -59 -119 -178 -191 -318 -191 -133 0 -241 68 -300 189 -105 212 21 456 253 492 66 10 118 5 186 -20z"/>
</g>
</svg>