<?xml version="1.0" standalone="no"?>
<!DOCTYPE svg PUBLIC "-//W3C//DTD SVG 20010904//EN"
 "http://www.w3.org/TR/2001/REC-SVG-20010904/DTD/svg10.dtd">
<svg version="1.0" xmlns="http://www.w3.org/2000/svg"
 width="949.000000pt" height="711.000000pt" viewBox="0 0 949.000000 711.000000"
 preserveAspectRatio="xMidYMid meet">
<g transform="translate(0.000000,711.000000) scale(0.100000,-0.100000)"
fill="#000000" stroke="none">
<path d="M5035 6736 c-66 -31 -112 -78 -144 -146 -25 -53 -26 -64 -29 -267 -4
-213 -4 -213 -233 -213 -244 0 -261 -3 -304 -50 -19 -21 -20 -40 -25 -287 -5
-266 -5 -266 -121 -313 -259 -105 -458 -236 -625 -413 -85 -88 -170 -201 -210
-276 -16 -29 -34 -56 -41 -58 -7 -3 -91 70 -187 162 -96 92 -188 177 -206 188
-30 19 -36 19 -73 6 -51 -18 -80 -56 -79 -105 0 -22 28 -207 62 -412 60 -372
60 -372 0 -741 -33 -203 -60 -389 -60 -413 0 -55 26 -92 75 -108 53 -17 81 2
280 193 96 92 179 167 184 167 5 0 27 -31 50 -69 227 -382 642 -667 1131 -774
185 -41 292 -52 500 -51 304 1 567 51 819 157 228 95 415 219 576 381 363 366
480 839 319 1289 -95 263 -315 528 -584 703 -108 70 -199 116 -330 169 -125
51 -125 51 -130 318 -6 267 -6 267 -32 294 -35 35 -85 41 -330 42 -198 1 -198
1 -198 194 0 149 3 198 14 212 12 17 32 20 171 25 157 6 157 6 186 38 34 38
38 88 12 132 -26 45 -51 50 -226 50 -150 0 -166 -2 -212 -24z m383 -1010 c3
-159 3 -159 -30 -152 -18 4 -94 14 -168 23 -159 18 -441 13 -585 -12 -49 -8
-93 -15 -97 -15 -5 0 -8 70 -8 155 0 154 0 154 143 158 78 1 277 3 442 2 300
0 300 0 303 -159z m-328 -599 c5 -249 5 -249 38 -278 45 -40 99 -40 144 0 33
29 33 29 36 258 1 125 4 233 7 240 10 29 307 -59 480 -142 483 -233 760 -626
742 -1055 -15 -373 -226 -692 -612 -925 -272 -164 -586 -245 -955 -245 -468 0
-876 143 -1184 415 -133 118 -255 291 -312 442 -39 103 -68 133 -128 133 -51
0 -64 -9 -218 -159 -43 -41 -80 -72 -83 -69 -4 3 7 92 24 196 17 105 31 212
31 239 0 26 -14 135 -31 241 -18 106 -29 195 -26 198 4 4 56 -41 118 -100 133
-128 154 -141 208 -126 21 5 44 16 50 24 7 8 33 63 60 123 56 128 101 201 188
305 141 167 359 317 599 412 101 40 303 96 347 96 27 0 27 0 28 -107 1 -133 6
-152 48 -180 50 -34 96 -30 137 11 28 28 34 41 34 78 0 25 3 86 7 137 6 92 6
92 112 89 106 -3 106 -3 111 -251z"/>
<path d="M4210 4606 c-151 -56 -243 -147 -291 -288 -17 -51 -20 -80 -17 -158
3 -81 8 -105 35 -163 44 -93 118 -169 212 -215 73 -36 77 -37 190 -37 110 0
119 2 186 33 79 37 141 93 190 168 50 76 68 148 63 257 -3 81 -7 101 -39 167
-55 114 -141 191 -257 231 -65 22 -217 25 -272 5z m231 -234 c162 -84 152
-317 -16 -393 -149 -68 -323 66 -301 231 14 105 111 190 216 190 33 0 64 -9
101 -28z"/>
<path d="M5473 4606 c-151 -49 -275 -192 -304 -351 -39 -211 93 -428 300 -495
59 -19 87 -22 164 -18 81 3 103 8 161 37 252 124 334 438 173 658 -56 75 -96
109 -177 147 -58 27 -77 31 -170 33 -68 2 -120 -2 -147 -11z m215 -222 c83
-34 135 -110 136 -198 1 -176 -178 -280 -329 -191 -65 38 -98 92 -103 170 -3
47 1 73 16 107 45 102 177 155 280 112z"/>
<path d="M655 2204 c-230 -56 -415 -240 -491 -489 -29 -93 -25 -294 7 -400 37
-121 90 -208 184 -301 203 -202 479 -249 730 -125 102 51 152 91 139 113 -5 9
-187 222 -404 474 -217 252 -403 468 -413 481 -18 23 -18 23 20 58 45 42 167
106 238 126 29 8 91 14 150 13 119 -1 193 -23 303 -90 79 -48 97 -53 106 -27
16 40 -127 129 -260 163 -92 24 -221 25 -309 4z m94 -744 c215 -250 391 -458
391 -462 0 -11 -69 -50 -79 -43 -9 5 -385 428 -689 773 -45 52 -82 100 -82
108 0 22 44 84 57 82 6 -2 187 -208 402 -458z m-128 -111 c195 -221 358 -407
362 -415 13 -22 -36 -35 -153 -41 -83 -4 -119 -2 -165 12 -216 62 -385 237
-441 454 -12 49 -15 94 -11 190 5 132 19 201 41 201 8 0 173 -180 367 -401z"/>
<path d="M1473 2208 c-11 -17 -17 -1008 -8 -1216 7 -163 7 -163 129 -160 121
3 121 3 124 313 1 170 6 313 11 318 4 4 42 -8 83 -29 75 -37 75 -37 184 9 121
51 96 53 265 -18 67 -28 67 -28 127 9 33 20 62 36 66 36 3 0 6 -118 7 -262 1
-313 6 -371 33 -376 10 -2 22 2 27 10 11 17 11 1349 0 1366 -5 8 -17 12 -27
10 -27 -5 -32 -55 -33 -285 -1 -192 -1 -192 -70 -233 -69 -41 -69 -41 -177 3
-107 45 -107 45 -217 -1 -109 -45 -109 -45 -193 -4 -84 42 -84 42 -84 271 0
196 -2 230 -16 242 -20 16 -49 1 -50 -27 -1 -11 -2 -304 -3 -651 -1 -633 -1
-633 -61 -633 -60 0 -60 0 -60 648 0 491 -3 651 -12 660 -16 16 -35 15 -45 0z
m750 -582 c106 -44 106 -44 159 -10 71 45 78 44 78 -11 0 -45 -1 -46 -62 -85
-35 -22 -71 -40 -80 -40 -9 0 -58 18 -108 40 -50 22 -97 40 -104 40 -7 0 -54
-18 -105 -40 -50 -22 -102 -40 -114 -40 -12 0 -53 17 -92 38 -70 37 -70 37
-73 85 -4 58 4 59 88 17 33 -16 67 -30 77 -30 10 0 59 18 108 39 50 22 97 40
107 40 9 1 64 -19 121 -43z"/>
<path d="M4705 2120 c-701 -210 -680 -203 -683 -227 -2 -14 3 -23 15 -27 18
-6 971 271 1014 294 23 13 25 46 3 54 -9 3 -16 6 -17 5 -1 0 -150 -45 -332
-99z"/>
<path d="M7733 2188 c-21 -18 -228 -203 -461 -410 -232 -208 -426 -378 -431
-378 -4 0 -11 179 -14 397 -7 408 -8 417 -47 410 -32 -5 -35 -835 -4 -975 41
-182 191 -343 373 -396 62 -18 184 -21 251 -5 174 40 326 187 389 376 20 60
21 83 21 526 0 531 1 522 -77 455z m7 -178 c0 -79 0 -79 -102 -169 -591 -514
-764 -661 -773 -658 -5 2 -16 25 -23 52 -14 48 -14 48 35 96 82 81 846 759
855 759 4 0 8 -36 8 -80z m-2 -478 c-3 -298 -3 -298 -42 -378 -73 -147 -198
-242 -351 -265 -139 -22 -291 34 -389 143 -31 34 -56 65 -56 70 0 10 821 728
833 728 4 0 7 -134 5 -298z"/>
<path d="M3305 2153 c-29 -64 -466 -1116 -510 -1230 -30 -78 -28 -106 7 -101
22 3 23 5 202 431 32 75 62 137 67 137 5 0 65 -54 135 -120 74 -71 134 -120
146 -120 12 0 69 48 142 120 68 66 127 120 133 120 11 0 22 -21 65 -130 16
-41 63 -155 105 -252 75 -178 75 -178 194 -178 137 0 142 3 114 73 -72 181
-530 1285 -538 1295 -14 18 -51 11 -55 -10 -2 -9 114 -300 257 -646 144 -347
261 -633 261 -636 0 -3 -25 -6 -55 -6 -49 0 -56 3 -69 28 -7 15 -111 263 -231
552 -119 289 -235 568 -257 620 -56 133 -73 140 -113 53z m134 -280 c45 -109
80 -205 79 -213 -2 -9 -40 -51 -85 -94 -83 -79 -83 -79 -168 -1 -47 42 -85 85
-85 95 0 9 27 84 60 165 87 213 102 245 110 245 4 0 44 -89 89 -197z m-197
-378 c50 -47 99 -85 110 -85 10 0 57 37 103 81 51 50 90 79 99 76 7 -3 22 -27
32 -53 18 -47 18 -47 -106 -165 -69 -65 -128 -117 -132 -116 -18 5 -248 230
-248 242 0 18 38 105 46 105 3 0 47 -38 96 -85z"/>
<path d="M5689 2196 c-95 -27 -219 -94 -219 -120 0 -11 154 -204 633 -795 132
-162 227 -288 224 -295 -3 -8 -22 -26 -42 -42 -36 -27 -36 -27 -56 -7 -11 11
-204 251 -427 533 -224 283 -413 515 -419 518 -19 6 -68 -54 -107 -128 -146
-279 -102 -608 111 -831 88 -92 156 -136 268 -175 69 -24 96 -28 195 -28 105
-1 124 2 218 33 102 35 102 35 137 1 34 -33 34 -33 87 7 29 23 70 57 92 77 36
34 38 37 24 58 -44 67 -44 60 1 133 170 283 138 630 -81 871 -70 77 -182 148
-280 179 -67 21 -97 25 -196 24 -64 0 -138 -6 -163 -13z m344 -72 c147 -49
269 -155 345 -301 59 -113 75 -191 69 -333 -3 -84 -10 -133 -27 -182 -26 -78
-80 -172 -101 -175 -15 -2 -748 896 -756 927 -4 14 11 24 69 48 96 39 96 39
218 41 88 1 117 -3 183 -25z m-258 -724 c184 -233 335 -430 335 -437 0 -32
-146 -73 -261 -73 -85 0 -206 31 -278 72 -31 17 -90 66 -132 107 -60 60 -85
94 -117 161 -22 47 -46 110 -53 140 -17 72 -17 231 0 300 16 65 65 176 88 202
16 18 18 18 49 -14 18 -18 184 -224 369 -458z"/>
<path d="M8524 2186 c-107 -35 -180 -81 -269 -170 -89 -89 -137 -170 -177
-296 -19 -61 -23 -97 -23 -195 0 -144 13 -200 72 -325 39 -80 59 -108 133
-182 70 -71 102 -95 171 -128 196 -94 391 -91 584 8 95 49 227 181 277 277 95
184 111 374 48 576 -60 194 -238 373 -432 434 -110 35 -279 35 -384 1z m356
-54 c31 -10 56 -24 58 -33 2 -13 -602 -996 -630 -1024 -15 -15 -83 67 -123
149 -48 98 -68 184 -69 296 -1 116 14 179 66 289 33 69 56 100 122 165 132
131 235 175 416 175 72 0 122 -6 160 -17z m201 -109 c7 -8 6 -19 -2 -35 -50
-96 -624 -1028 -633 -1028 -18 0 -76 39 -82 55 -5 12 500 838 618 1013 29 42
29 42 59 25 17 -10 35 -23 40 -30z m162 -206 c50 -102 68 -180 68 -300 -1
-187 -56 -324 -180 -447 -131 -131 -273 -187 -446 -177 -98 6 -165 22 -165 39
0 10 558 937 603 1002 21 29 21 29 53 -8 18 -21 48 -70 67 -109z"/>
<path d="M4544 1886 c-276 -79 -507 -147 -513 -150 -16 -10 -14 -46 3 -52 8
-3 106 20 217 51 113 32 205 53 210 48 5 -5 10 -220 11 -478 3 -470 3 -470
118 -470 115 0 115 0 122 85 3 47 6 279 7 517 1 432 1 432 44 444 90 24 273
78 300 88 21 8 28 17 25 34 -2 13 -11 23 -23 24 -11 1 -246 -63 -521 -141z
m101 -521 c0 -470 0 -470 -52 -473 -53 -3 -53 -3 -53 462 0 465 0 465 33 475
17 5 41 9 52 8 20 -2 20 -9 20 -472z"/>
</g>
</svg>
